<svg width="32" height="32" fill="none" xmlns="http://www.w3.org/2000/svg"><path fill-rule="evenodd" clip-rule="evenodd" d="m16.006 0 4.677 4.679h6.625v6.628h-6.625V4.68l-4.677 4.707-4.704-4.707L16.006 0Zm11.31 11.325-4.685 4.687 4.684 4.687L32 16.012l-4.685-4.687Zm-6.633 9.368h6.625v6.628h-6.625v-6.628Zm-4.677 1.95-4.704 4.678L16.006 32l4.677-4.679-4.677-4.679 6.625-6.628-6.625-6.628-6.625 6.628-4.704-4.707L0 16.014l4.677 4.679v6.628h6.625v-6.628H4.677l4.704-4.679 6.625 6.628ZM11.302 4.678H4.677v6.628h6.625V4.68Z" fill="#DC2828"/></svg>