<svg width="32" height="32" viewBox="0 0 32 32" fill="none" xmlns="http://www.w3.org/2000/svg">
<path d="M16.0059 0L20.6824 4.67881L16.0059 9.38547L11.3024 4.67975V11.3071H4.67737V4.6788H11.3015L16.0059 0Z" fill="#DC2828"/>
<path d="M27.3083 4.6788L20.6824 4.67881L20.6833 11.3071H27.3083V4.6788Z" fill="#DC2828"/>
<path d="M27.3154 11.3247L22.6308 16.0115L27.3154 20.6984L32 16.0115L27.3154 11.3247Z" fill="#DC2828"/>
<path d="M20.6833 20.6926H27.3083V27.3209H20.6833V20.6926Z" fill="#DC2828"/>
<path d="M20.6833 27.3209L16.0067 22.6421L11.3024 27.3207V20.6926H4.67737V27.3209L11.3024 27.3207L16.0067 31.9997L20.6833 27.3209Z" fill="#DC2828"/>
<path d="M9.38087 16.0139L4.67737 11.3071L0 16.0139L4.67737 20.6926L9.38087 16.0139Z" fill="#DC2828"/>
<path d="M22.6311 16.0138L16.0059 9.38547L9.38087 16.0139L16.0067 22.6421L22.6311 16.0138Z" fill="#DC2828"/>
</svg>
